<?xml version="1.0" standalone="no"?>
<!DOCTYPE svg PUBLIC "-//W3C//DTD SVG 20010904//EN"
 "http://www.w3.org/TR/2001/REC-SVG-20010904/DTD/svg10.dtd">
<svg version="1.0" xmlns="http://www.w3.org/2000/svg"
 width="512.000000pt" height="512.000000pt" viewBox="0 0 512.000000 512.000000"
 preserveAspectRatio="xMidYMid meet">

<g transform="translate(0.000000,512.000000) scale(0.100000,-0.100000)"
fill="#000000" stroke="none">
<path d="M1360 5113 c-86 -10 -236 -46 -331 -79 -513 -178 -880 -599 -1002
-1148 l-22 -101 0 -1225 0 -1225 22 -101 c138 -623 584 -1069 1207 -1207 l101
-22 1225 0 1225 0 101 22 c202 45 402 129 552 230 340 232 563 564 655 977
l22 101 0 1225 0 1225 -22 101 c-93 417 -319 752 -663 981 -150 101 -339 179
-538 225 -97 22 -97 22 -1297 24 -660 0 -1216 -1 -1235 -3z m2320 -513 c182
-19 315 -67 466 -165 113 -74 215 -176 289 -289 98 -151 146 -284 165 -466 13
-127 13 -2113 0 -2240 -19 -182 -67 -315 -165 -466 -134 -206 -361 -369 -596
-428 -138 -34 -255 -37 -1354 -33 -1193 4 -1129 1 -1313 69 -301 114 -548 389
-625 698 -33 131 -37 253 -37 1280 0 1027 4 1149 37 1280 100 402 463 715 880
759 115 12 2138 13 2253 1z"/>
<path d="M2470 3827 c-19 -6 -58 -34 -87 -62 -107 -105 -108 -259 -1 -365 72
-73 32 -70 818 -70 786 0 746 -3 818 70 107 106 106 261 -1 365 -32 31 -68 55
-93 63 -56 16 -1402 16 -1454 -1z"/>
<path d="M2131 3101 c-48 -17 -83 -48 -345 -310 l-291 -291 -95 96 c-120 120
-160 145 -249 152 -54 3 -76 0 -119 -18 -122 -53 -180 -185 -141 -321 11 -37
46 -78 228 -263 236 -239 273 -266 367 -266 117 0 112 -5 546 429 299 298 402
407 417 441 25 54 28 155 7 205 -54 129 -196 192 -325 146z"/>
<path d="M3004 2809 c-107 -31 -189 -139 -189 -249 0 -112 83 -219 193 -250
22 -6 199 -10 448 -10 478 0 486 1 564 80 49 48 80 118 80 180 0 62 -31 132
-80 180 -78 79 -85 80 -569 79 -229 0 -430 -5 -447 -10z"/>
<path d="M2455 1771 c-22 -10 -55 -33 -73 -51 -107 -106 -106 -261 1 -365 32
-31 68 -55 93 -63 59 -17 1389 -17 1448 0 25 8 61 32 93 63 107 104 108 259 1
365 -72 73 -32 70 -818 70 -661 0 -707 -2 -745 -19z"/>
</g>
</svg>
